# xmcd
#
# Track frame offsets: 
#        300
#        16855
#        35171
#        56703
#        73751
#        95403
#        114428
#        133858
#        152500
#        171394
#        188517
#        209406
#        227802
#        246093
#        264219
#        280886
#        298982
#        318282
#
# Disc length: 4485 seconds
#
# Revision: 2
# Processed by: cddbd v1.5.2PL0 Copyright (c) Steve Scherf et al.
# Submitted via: ExactAudioCopyFreeDBPlugin 1.0
#
DISCID=0b118112
DTITLE=Various Artist - The Greatest Love of All CD1
DYEAR=2014
DGENRE=Pop
TTITLE0=Bruno Mars - Just The Way You Are
TTITLE1=Jason Mraz - I'm Yours
TTITLE2=Christina Perri - A Thousand Years
TTITLE3=Michael Buble - Home
TTITLE4=Celine Dion - The Power Of Love
TTITLE5=Michael Learns To Rock - That's Why (You Go Away)
TTITLE6=Roxette - It Must Have Been Love
TTITLE7=Westlife - Swear It Again
TTITLE8=Savage Garden - I Knew I Loved You
TTITLE9=Cyndi Lauper - Time After Time
TTITLE10=Christina Aguilera - I Turn To You
TTITLE11=Air Supply - Goodbye
TTITLE12=George Benson - Nothing's Gonna Change My Love For You
TTITLE13=Elton John - Your Song
TTITLE14=Sade - Your Love Is King
TTITLE15=Lauren Wood - Fallen
TTITLE16=The Corrs - What Can I Do
TTITLE17=Kenny G - Theme From Dying Young
EXTD=The Greatest Love of All CD1 2014\n\n華納唱片推出一年一度的情人節精選專輯《The Great
EXTD=est Love of All》，2CD收錄36首世紀情歌，好歌包括: Bruno Mars - Just The Way You
EXTD=Are、Michael Learns To Rock - That’s Why You Go Away、Elton John -
EXTD=Your Song、Jason Mraz - I'm Yours、Diana Ross - When You Tell Me T
EXTD=hat You Love Me、Celine Dion - The Power Of Love、Westlife - Swear 
EXTD=It Again and many more… \n
EXTT0=
EXTT1=
EXTT2=
EXTT3=
EXTT4=
EXTT5=
EXTT6=
EXTT7=
EXTT8=
EXTT9=
EXTT10=
EXTT11=
EXTT12=
EXTT13=
EXTT14=
EXTT15=
EXTT16=
EXTT17=
PLAYORDER=
